# This file uses centimeters as units for non-parametric coordinates.

v 2.891406 -7.500000 -2.100730
v 1.104419 -7.500000 -3.399052
v -1.104419 -7.500000 -3.399052
v -2.891406 -7.500000 -2.100729
v -3.573975 -7.500000 0.000000
v -2.891406 -7.500000 2.100729
v -1.104419 -7.500000 3.399052
v 1.104419 -7.500000 3.399051
v 2.891406 -7.500000 2.100729
v 3.573974 -7.500000 0.000000
v 2.497039 7.500000 -1.814206
v 0.953784 7.500000 -2.935447
v -0.953785 7.500000 -2.935446
v -2.497040 7.500000 -1.814205
v -3.086511 7.500000 0.000000
v -2.497039 7.500000 1.814206
v -0.953784 7.500000 2.935446
v 0.953784 7.500000 2.935446
v 2.497039 7.500000 1.814205
v 3.086510 7.500000 0.000000
v -2.427051 -5.815854 1.763356
v -3.000000 -5.815854 0.000000
v -2.427052 -5.815854 -1.763356
v -0.927051 -5.815854 -2.853170
v 0.927051 -5.815854 -2.853170
v 2.427051 -5.815854 -1.763356
v 3.000000 -5.815854 0.000000
v 2.427051 -5.815854 1.763356
v 0.927051 -5.815854 2.853170
v -0.927051 -5.815854 2.853170
v -2.427051 -0.132594 1.763356
v -3.000000 -0.132594 0.000000
v -2.427052 -0.132594 -1.763356
v -0.927051 -0.132594 -2.853170
v 0.927051 -0.132594 -2.853170
v 2.427051 -0.132594 -1.763356
v 3.000000 -0.132594 0.000000
v 2.427051 -0.132594 1.763356
v 0.927051 -0.132594 2.853169
v -0.927051 -0.132594 2.853170
v -2.113386 6.122807 1.535465
v -2.612289 6.122807 0.000000
v -2.113386 6.122807 -1.535465
v -0.807242 6.122807 -2.484434
v 0.807241 6.122807 -2.484435
v 2.113386 6.122807 -1.535465
v 2.612289 6.122807 0.000000
v 2.113386 6.122807 1.535465
v 0.807242 6.122807 2.484434
v -0.807242 6.122807 2.484434
v -2.497039 6.533167 1.814206
v -3.086511 6.533167 0.000000
v -2.497040 6.533167 -1.814205
v -0.953785 6.533167 -2.935447
v 0.953784 6.533167 -2.935447
v 2.497039 6.533167 -1.814206
v 3.086511 6.533167 0.000000
v 2.497039 6.533167 1.814205
v 0.953784 6.533167 2.935446
v -0.953784 6.533167 2.935447
v -2.891406 -6.371561 2.100729
v -3.573975 -6.371561 0.000000
v -2.891406 -6.371561 -2.100729
v -1.104419 -6.371561 -3.399052
v 1.104419 -6.371561 -3.399052
v 2.891406 -6.371561 -2.100730
v 3.573974 -6.371561 0.000000
v 2.891406 -6.371561 2.100729
v 1.104419 -6.371561 3.399051
v -1.104419 -6.371561 3.399052
vt 0.375000 0.312500
vt 0.400000 0.312500
vt 0.425000 0.312500
vt 0.450000 0.312500
vt 0.475000 0.312500
vt 0.500000 0.312500
vt 0.525000 0.312500
vt 0.550000 0.312500
vt 0.575000 0.312500
vt 0.600000 0.312500
vt 0.625000 0.312500
vt 0.375000 0.688440
vt 0.400000 0.688440
vt 0.425000 0.688440
vt 0.450000 0.688440
vt 0.475000 0.688440
vt 0.500000 0.688440
vt 0.525000 0.688440
vt 0.550000 0.688440
vt 0.575000 0.688440
vt 0.600000 0.688440
vt 0.625000 0.688440
vt 0.500000 0.354709
vt 0.475000 0.354709
vt 0.450000 0.354709
vt 0.425000 0.354709
vt 0.400000 0.354709
vt 0.625000 0.354709
vt 0.375000 0.354709
vt 0.600000 0.354709
vt 0.575000 0.354709
vt 0.550000 0.354709
vt 0.525000 0.354709
vt 0.500000 0.497147
vt 0.475000 0.497147
vt 0.450000 0.497147
vt 0.425000 0.497147
vt 0.400000 0.497147
vt 0.625000 0.497147
vt 0.375000 0.497147
vt 0.600000 0.497147
vt 0.575000 0.497147
vt 0.550000 0.497147
vt 0.525000 0.497147
vt 0.500000 0.653924
vt 0.475000 0.653924
vt 0.450000 0.653924
vt 0.425000 0.653924
vt 0.400000 0.653924
vt 0.625000 0.653924
vt 0.375000 0.653924
vt 0.600000 0.653924
vt 0.575000 0.653924
vt 0.550000 0.653924
vt 0.525000 0.653924
vt 0.500000 0.664208
vt 0.475000 0.664208
vt 0.450000 0.664208
vt 0.425000 0.664208
vt 0.400000 0.664208
vt 0.625000 0.664208
vt 0.375000 0.664208
vt 0.600000 0.664208
vt 0.575000 0.664208
vt 0.550000 0.664208
vt 0.525000 0.664208
vt 0.500000 0.340782
vt 0.475000 0.340782
vt 0.450000 0.340782
vt 0.425000 0.340782
vt 0.400000 0.340782
vt 0.625000 0.340782
vt 0.375000 0.340782
vt 0.600000 0.340782
vt 0.575000 0.340782
vt 0.550000 0.340782
vt 0.525000 0.340782
vn 0.587785 0.000000 -0.809017
vn 0.587785 0.000000 -0.809017
vn 0.566778 0.264960 -0.780102
vn 0.566778 0.264960 -0.780102
vn -0.000000 0.000000 -1.000000
vn -0.000000 0.000000 -1.000000
vn -0.000000 0.264960 -0.964259
vn -0.000000 0.264960 -0.964259
vn -0.587785 0.000000 -0.809017
vn -0.587785 0.000000 -0.809017
vn -0.566778 0.264960 -0.780102
vn -0.566778 0.264960 -0.780102
vn -0.951057 0.000000 -0.309017
vn -0.951057 0.000000 -0.309017
vn -0.917065 0.264960 -0.297973
vn -0.917065 0.264960 -0.297973
vn -0.951056 0.000000 0.309017
vn -0.951056 0.000000 0.309017
vn -0.917065 0.264960 0.297973
vn -0.917065 0.264960 0.297973
vn -0.587785 0.000000 0.809017
vn -0.587785 0.000000 0.809017
vn -0.566778 0.264960 0.780102
vn -0.566778 0.264960 0.780102
vn 0.000000 0.000000 1.000000
vn 0.000000 0.000000 1.000000
vn 0.000000 0.264960 0.964260
vn 0.000000 0.264960 0.964260
vn 0.587785 0.000000 0.809017
vn 0.587785 0.000000 0.809017
vn 0.566778 0.264960 0.780102
vn 0.566778 0.264960 0.780102
vn 0.951057 0.000000 0.309017
vn 0.951057 0.000000 0.309017
vn 0.917065 0.264960 0.297973
vn 0.917065 0.264960 0.297973
vn 0.951057 0.000000 -0.309017
vn 0.951057 0.000000 -0.309017
vn 0.917065 0.264960 -0.297973
vn 0.917065 0.264960 -0.297973
vn -0.945646 0.106517 0.307259
vn -0.945646 0.106517 0.307259
vn -0.950637 0.029709 0.308881
vn -0.950637 0.029709 0.308881
vn -0.945646 0.106517 -0.307259
vn -0.945646 0.106517 -0.307259
vn -0.950637 0.029709 -0.308881
vn -0.950637 0.029709 -0.308881
vn -0.584441 0.106517 -0.804414
vn -0.584441 0.106517 -0.804414
vn -0.587526 0.029709 -0.808660
vn -0.587526 0.029709 -0.808660
vn -0.000000 0.106517 -0.994311
vn -0.000000 0.106517 -0.994311
vn -0.000000 0.029709 -0.999559
vn -0.000000 0.029709 -0.999559
vn 0.584441 0.106517 -0.804414
vn 0.584441 0.106517 -0.804414
vn 0.587526 0.029709 -0.808660
vn 0.587526 0.029709 -0.808660
vn 0.945646 0.106516 -0.307259
vn 0.945646 0.106517 -0.307259
vn 0.950637 0.029709 -0.308881
vn 0.950637 0.029709 -0.308881
vn 0.945646 0.106516 0.307259
vn 0.945646 0.106516 0.307259
vn 0.950637 0.029709 0.308881
vn 0.950637 0.029709 0.308881
vn 0.584441 0.106517 0.804414
vn 0.584441 0.106517 0.804414
vn 0.587526 0.029709 0.808660
vn 0.587526 0.029709 0.808660
vn 0.000000 0.106517 0.994311
vn 0.000000 0.106517 0.994311
vn 0.000000 0.029709 0.999559
vn 0.000000 0.029709 0.999559
vn -0.584441 0.106517 0.804414
vn -0.584441 0.106517 0.804414
vn -0.587526 0.029709 0.808660
vn -0.587526 0.029709 0.808660
vn -0.950815 -0.022533 0.308939
vn -0.950815 -0.022533 0.308939
vn -0.950815 -0.022533 -0.308938
vn -0.950815 -0.022533 -0.308938
vn -0.587636 -0.022533 -0.808812
vn -0.587636 -0.022533 -0.808812
vn 0.000000 -0.022533 -0.999746
vn 0.000000 -0.022533 -0.999746
vn 0.587636 -0.022533 -0.808812
vn 0.587636 -0.022533 -0.808812
vn 0.950815 -0.022533 -0.308939
vn 0.950815 -0.022533 -0.308939
vn 0.950815 -0.022533 0.308939
vn 0.950815 -0.022533 0.308939
vn 0.587636 -0.022533 0.808812
vn 0.587636 -0.022533 0.808812
vn 0.000000 -0.022533 0.999746
vn 0.000000 -0.022533 0.999746
vn -0.587636 -0.022533 0.808812
vn -0.587636 -0.022533 0.808812
vn -0.917117 -0.264760 0.297990
vn -0.917117 -0.264760 0.297990
vn -0.917117 -0.264760 -0.297989
vn -0.917117 -0.264760 -0.297989
vn -0.566810 -0.264761 -0.780146
vn -0.566810 -0.264760 -0.780146
vn -0.000000 -0.264761 -0.964314
vn -0.000000 -0.264761 -0.964314
vn 0.566810 -0.264760 -0.780147
vn 0.566810 -0.264760 -0.780147
vn 0.917117 -0.264760 -0.297990
vn 0.917117 -0.264760 -0.297990
vn 0.917117 -0.264760 0.297990
vn 0.917117 -0.264760 0.297990
vn 0.566810 -0.264760 0.780147
vn 0.566810 -0.264760 0.780147
vn 0.000000 -0.264761 0.964314
vn 0.000000 -0.264761 0.964314
vn -0.566810 -0.264760 0.780147
vn -0.566810 -0.264760 0.780147
vn -0.951056 0.000000 0.309017
vn -0.951057 0.000000 0.309017
vn -0.951057 0.000000 -0.309017
vn -0.951057 0.000000 -0.309017
vn -0.587785 0.000000 -0.809017
vn -0.587785 0.000000 -0.809017
vn -0.000000 0.000000 -1.000000
vn -0.000000 0.000000 -1.000000
vn 0.587785 0.000000 -0.809017
vn 0.587785 0.000000 -0.809017
vn 0.951057 0.000000 -0.309017
vn 0.951057 0.000000 -0.309017
vn 0.951057 0.000000 0.309017
vn 0.951057 0.000000 0.309017
vn 0.587785 -0.000000 0.809017
vn 0.587785 -0.000000 0.809017
vn 0.000000 -0.000000 1.000000
vn 0.000000 -0.000000 1.000000
vn -0.587785 0.000000 0.809017
vn -0.587785 0.000000 0.809017
f 1/1/1 2/2/2 65/71/3 66/73/4
f 2/2/5 3/3/6 64/70/7 65/71/8
f 3/3/9 4/4/10 63/69/11 64/70/12
f 4/4/13 5/5/14 62/68/15 63/69/16
f 5/5/17 6/6/18 61/67/19 62/68/20
f 6/6/21 7/7/22 70/77/23 61/67/24
f 7/7/25 8/8/26 69/76/27 70/77/28
f 8/8/29 9/9/30 68/75/31 69/76/32
f 9/9/33 10/10/34 67/74/35 68/75/36
f 10/10/37 1/11/38 66/72/39 67/74/40
f 22/24/41 21/23/42 31/34/43 32/35/44
f 23/25/45 22/24/46 32/35/47 33/36/48
f 24/26/49 23/25/50 33/36/51 34/37/52
f 25/27/53 24/26/54 34/37/55 35/38/56
f 26/29/57 25/27/58 35/38/59 36/40/60
f 27/30/61 26/28/62 36/39/63 37/41/64
f 28/31/65 27/30/66 37/41/67 38/42/68
f 29/32/69 28/31/70 38/42/71 39/43/72
f 30/33/73 29/32/74 39/43/75 40/44/76
f 21/23/77 30/33/78 40/44/79 31/34/80
f 32/35/44 31/34/43 41/45/81 42/46/82
f 33/36/48 32/35/47 42/46/83 43/47/84
f 34/37/52 33/36/51 43/47/85 44/48/86
f 35/38/56 34/37/55 44/48/87 45/49/88
f 36/40/60 35/38/59 45/49/89 46/51/90
f 37/41/64 36/39/63 46/50/91 47/52/92
f 38/42/68 37/41/67 47/52/93 48/53/94
f 39/43/72 38/42/71 48/53/95 49/54/96
f 40/44/76 39/43/75 49/54/97 50/55/98
f 31/34/80 40/44/79 50/55/99 41/45/100
f 42/46/82 41/45/81 51/56/101 52/57/102
f 43/47/84 42/46/83 52/57/103 53/58/104
f 44/48/86 43/47/85 53/58/105 54/59/106
f 45/49/88 44/48/87 54/59/107 55/60/108
f 46/51/90 45/49/89 55/60/109 56/62/110
f 47/52/92 46/50/91 56/61/111 57/63/112
f 48/53/94 47/52/93 57/63/113 58/64/114
f 49/54/96 48/53/95 58/64/115 59/65/116
f 50/55/98 49/54/97 59/65/117 60/66/118
f 41/45/100 50/55/99 60/66/119 51/56/120
f 52/57/102 51/56/101 16/17/121 15/16/122
f 53/58/104 52/57/103 15/16/123 14/15/124
f 54/59/106 53/58/105 14/15/125 13/14/126
f 55/60/108 54/59/107 13/14/127 12/13/128
f 56/62/110 55/60/109 12/13/129 11/12/130
f 57/63/112 56/61/111 11/22/131 20/21/132
f 58/64/114 57/63/113 20/21/133 19/20/134
f 59/65/116 58/64/115 19/20/135 18/19/136
f 60/66/118 59/65/117 18/19/137 17/18/138
f 51/56/120 60/66/119 17/18/139 16/17/140
f 62/68/20 61/67/19 21/23/42 22/24/41
f 63/69/16 62/68/15 22/24/46 23/25/45
f 64/70/12 63/69/11 23/25/50 24/26/49
f 65/71/8 64/70/7 24/26/54 25/27/53
f 66/73/4 65/71/3 25/27/58 26/29/57
f 67/74/40 66/72/39 26/28/62 27/30/61
f 68/75/36 67/74/35 27/30/66 28/31/65
f 69/76/32 68/75/31 28/31/70 29/32/69
f 70/77/28 69/76/27 29/32/74 30/33/73
f 61/67/24 70/77/23 30/33/78 21/23/77
