# This file uses centimeters as units for non-parametric coordinates.

v -1.256422 -1.495827 0.140464
v 1.256422 -1.495827 0.140464
v -1.256422 1.495827 0.140464
v 1.256422 1.495827 0.140464
v -1.256422 1.495827 -0.140464
v 1.256422 1.495827 -0.140464
v -1.256422 -1.495827 -0.140464
v 1.256422 -1.495827 -0.140464
vt 0.074276 0.090500
vt 0.750565 0.090500
vt 0.074276 0.915284
vt 0.750565 0.915284
vt 0.074276 0.971563
vt 0.750565 0.971563
vt 0.074276 0.024344
vt 0.750565 0.024344
vt 0.074276 0.091880
vt 0.750565 0.091880
vt 0.799593 0.090500
vt 0.799593 0.915284
vt 0.017878 0.090500
vt 0.017878 0.915284
vn 0.000000 0.000000 1.000000
vn 0.000000 0.000000 1.000000
vn 0.000000 0.000000 1.000000
vn 0.000000 0.000000 1.000000
vn 0.000000 1.000000 0.000000
vn 0.000000 1.000000 0.000000
vn 0.000000 1.000000 0.000000
vn 0.000000 1.000000 0.000000
vn 0.000000 -1.000000 0.000000
vn 0.000000 -1.000000 0.000000
vn 0.000000 -1.000000 0.000000
vn 0.000000 -1.000000 0.000000
vn 1.000000 0.000000 0.000000
vn 1.000000 0.000000 0.000000
vn 1.000000 0.000000 0.000000
vn 1.000000 0.000000 0.000000
vn -1.000000 0.000000 0.000000
vn -1.000000 0.000000 0.000000
vn -1.000000 0.000000 0.000000
vn -1.000000 0.000000 0.000000
f 1/1/1 2/2/2 4/4/3 3/3/4
f 3/3/5 4/4/6 6/6/7 5/5/8
f 7/7/9 8/8/10 2/10/11 1/9/12
f 2/2/13 8/11/14 6/12/15 4/4/16
f 7/13/17 1/1/18 3/3/19 5/14/20
