# This file uses centimeters as units for non-parametric coordinates.

v -3.018164 -2.387020 0.140464
v 3.018164 -2.387020 0.140464
v -3.018164 2.387020 0.140464
v 3.018164 2.387020 0.140464
v -3.018164 2.387020 -0.140464
v 3.018164 2.387020 -0.140464
v -3.018164 -2.387020 -0.140464
v 3.018164 -2.387020 -0.140464
vt 0.058466 0.068682
vt 0.914509 0.068682
vt 0.058466 0.733860
vt 0.914509 0.733860
vt 0.058466 0.779248
vt 0.914509 0.779248
vt 0.058466 0.015328
vt 0.914509 0.015328
vt 0.058466 0.069795
vt 0.914509 0.069795
vt 0.954049 0.068682
vt 0.954049 0.733860
vt 0.012982 0.068682
vt 0.012982 0.733860
vn 0.000000 0.000000 1.000000
vn 0.000000 0.000000 1.000000
vn 0.000000 0.000000 1.000000
vn 0.000000 0.000000 1.000000
vn 0.000000 1.000000 0.000000
vn 0.000000 1.000000 0.000000
vn 0.000000 1.000000 0.000000
vn 0.000000 1.000000 0.000000
vn 0.000000 -1.000000 0.000000
vn 0.000000 -1.000000 0.000000
vn 0.000000 -1.000000 0.000000
vn 0.000000 -1.000000 0.000000
vn 1.000000 0.000000 0.000000
vn 1.000000 0.000000 0.000000
vn 1.000000 0.000000 0.000000
vn 1.000000 0.000000 0.000000
vn -1.000000 0.000000 0.000000
vn -1.000000 0.000000 0.000000
vn -1.000000 0.000000 0.000000
vn -1.000000 0.000000 0.000000
f 1/1/1 2/2/2 4/4/3 3/3/4
f 3/3/5 4/4/6 6/6/7 5/5/8
f 7/7/9 8/8/10 2/10/11 1/9/12
f 2/2/13 8/11/14 6/12/15 4/4/16
f 7/13/17 1/1/18 3/3/19 5/14/20
