# This file uses centimeters as units for non-parametric coordinates.

v -1.000000 -0.250000 1.000000
v 1.000000 -0.250000 1.000000
v -0.827466 0.478937 0.827466
v 0.827466 0.478937 0.827466
v -0.827466 0.478937 -0.827466
v 0.827466 0.478937 -0.827466
v -1.000000 -0.250000 -1.000000
v 1.000000 -0.250000 -1.000000
v -1.000000 0.216092 1.000000
v -1.000000 0.216092 -1.000000
v 1.000000 0.216092 -1.000000
v 1.000000 0.216092 1.000000
v -0.572191 0.387399 0.572191
v 0.572191 0.387399 0.572191
v 0.572191 0.387399 -0.572191
v -0.572191 0.387399 -0.572191
vt 0.375000 0.000000
vt 0.625000 0.000000
vt 0.375000 0.250000
vt 0.625000 0.250000
vt 0.375000 0.500000
vt 0.625000 0.500000
vt 0.375000 0.750000
vt 0.625000 0.750000
vt 0.875000 0.000000
vt 0.875000 0.250000
vt 0.125000 0.000000
vt 0.125000 0.250000
vt 0.375000 0.159853
vt 0.125000 0.159853
vt 0.375000 0.590147
vt 0.625000 0.590147
vt 0.875000 0.159853
vt 0.625000 0.159853
vt 0.375000 0.250000
vt 0.625000 0.250000
vt 0.625000 0.500000
vt 0.375000 0.500000
vn 0.000000 0.000000 1.000000
vn 0.000000 0.000000 1.000000
vn 0.000000 0.167991 0.985789
vn 0.000000 0.167991 0.985789
vn 0.079616 0.993641 -0.079616
vn -0.079616 0.993641 -0.079616
vn -0.079616 0.993641 0.079616
vn 0.079616 0.993641 0.079616
vn 0.000000 0.167991 -0.985789
vn 0.000000 0.167991 -0.985789
vn 0.000000 0.000000 -1.000000
vn 0.000000 0.000000 -1.000000
vn 1.000000 0.000000 0.000000
vn 1.000000 0.000000 0.000000
vn 0.985789 0.167991 0.000000
vn 0.985789 0.167991 0.000000
vn -1.000000 0.000000 0.000000
vn -1.000000 0.000000 0.000000
vn -0.985789 0.167991 0.000000
vn -0.985789 0.167991 0.000000
vn -0.835986 0.548750 0.000000
vn -0.835986 0.548750 0.000000
vn 0.000000 0.548750 -0.835986
vn 0.000000 0.548750 -0.835986
vn 0.835986 0.548750 0.000000
vn 0.835986 0.548750 0.000000
vn 0.000000 0.548750 0.835986
vn 0.000000 0.548750 0.835986
vn 0.173793 0.969325 -0.173793
vn -0.173793 0.969325 -0.173793
vn -0.173793 0.969325 0.173793
vn 0.173793 0.969325 0.173793
f 1/1/1 2/2/2 12/18/3 9/13/4
f 13/19/5 14/20/6 15/21/7 16/22/8
f 10/15/9 11/16/10 8/8/11 7/7/12
f 2/2/13 8/9/14 11/17/15 12/18/16
f 7/11/17 1/1/18 9/13/19 10/14/20
f 10/14/20 9/13/19 3/3/21 5/12/22
f 5/5/23 6/6/24 11/16/10 10/15/9
f 12/18/16 11/17/15 6/10/25 4/4/26
f 9/13/4 12/18/3 4/4/27 3/3/28
f 3/3/29 4/4/30 14/20/6 13/19/5
f 4/4/30 6/6/31 15/21/7 14/20/6
f 6/6/31 5/5/32 16/22/8 15/21/7
f 5/5/32 3/3/29 13/19/5 16/22/8
